<svg xmlns="http://www.w3.org/2000/svg" xmlns:xlink="http://www.w3.org/1999/xlink" width="500" zoomAndPan="magnify" viewBox="0 0 375 374.999991" height="500" preserveAspectRatio="xMidYMid meet" version="1.2"><defs><clipPath id="2aeae11523"><path d="M 92.84375 142.230469 L 191.84375 142.230469 L 191.84375 250.980469 L 92.84375 250.980469 Z M 92.84375 142.230469 "/></clipPath><clipPath id="5d24b70467"><path d="M 157.148438 140 L 237 140 L 237 250.957031 L 157.148438 250.957031 Z M 157.148438 140 "/></clipPath><clipPath id="de493364c8"><path d="M 196 148 L 282 148 L 282 250.957031 L 196 250.957031 Z M 196 148 "/></clipPath></defs><g id="3be2f697cb"><rect x="0" width="375" y="0" height="374.999991" style="fill:#ffffff;fill-opacity:1;stroke:none;"/><rect x="0" width="375" y="0" height="374.999991" style="fill:#f6f6f6;fill-opacity:1;stroke:none;"/><g clip-rule="nonzero" clip-path="url(#2aeae11523)"><path style=" stroke:none;fill-rule:evenodd;fill:#000000;fill-opacity:1;" d="M 92.894531 250.980469 L 116.792969 250.980469 L 116.792969 222.25 L 189.679688 142.230469 L 160.835938 142.230469 L 116.804688 189.757812 L 116.804688 142.230469 L 92.894531 142.230469 Z M 137.386719 216.683594 L 163.089844 250.980469 L 191.792969 250.980469 L 152.269531 199.679688 Z M 137.386719 216.683594 "/></g><g clip-rule="nonzero" clip-path="url(#5d24b70467)"><path style=" stroke:none;fill-rule:nonzero;fill:#000000;fill-opacity:1;" d="M 236.503906 160.570312 L 225.46875 179.65625 L 219.675781 169.601562 L 217.777344 172.894531 L 183.691406 231.835938 L 175.425781 246.160156 C 174.578125 247.632812 173.355469 248.828125 171.929688 249.652344 C 170.507812 250.476562 168.859375 250.925781 167.136719 250.925781 C 163.714844 250.925781 160.570312 249.101562 158.847656 246.132812 C 157.148438 243.1875 157.148438 239.546875 158.847656 236.578125 L 211.359375 145.722656 C 213.058594 142.753906 216.230469 140.929688 219.648438 140.929688 C 223.070312 140.929688 226.214844 142.753906 227.914062 145.722656 L 234.78125 157.625 Z M 236.503906 160.570312 "/></g><g clip-rule="nonzero" clip-path="url(#de493364c8)"><path style=" stroke:none;fill-rule:nonzero;fill:#000000;fill-opacity:1;" d="M 280.453125 236.625 L 255.480469 193.40625 L 244.445312 212.496094 L 255.605469 231.835938 L 225.34375 231.835938 L 240.472656 205.632812 L 251.511719 186.546875 L 265.496094 162.367188 C 267.242188 159.347656 267.191406 155.601562 265.394531 152.609375 C 261.597656 146.421875 252.558594 146.519531 248.9375 152.808594 L 240.472656 167.457031 L 229.4375 186.546875 L 203.242188 231.835938 L 197.402344 241.964844 C 196.75 243.089844 196.527344 244.261719 196.601562 245.410156 C 196.601562 245.511719 196.628906 245.585938 196.628906 245.683594 C 196.628906 245.734375 196.628906 245.757812 196.628906 245.808594 C 196.628906 245.835938 196.628906 245.882812 196.652344 245.910156 C 196.675781 246.007812 196.703125 246.132812 196.726562 246.234375 C 196.75 246.382812 196.800781 246.507812 196.828125 246.65625 C 197.050781 247.40625 197.425781 248.078125 197.875 248.679688 C 198 248.828125 198.125 248.976562 198.25 249.101562 C 199.324219 250.226562 200.820312 250.925781 202.546875 250.925781 L 224.46875 250.925781 C 224.46875 250.925781 224.492188 250.925781 224.492188 250.925781 L 272.113281 250.925781 C 275.53125 250.925781 278.679688 249.101562 280.375 246.132812 C 282.148438 243.214844 282.148438 239.570312 280.453125 236.625 Z M 280.453125 236.625 "/></g><path style=" stroke:none;fill-rule:nonzero;fill:#000000;fill-opacity:1;" d="M 280.191406 133.558594 C 280.335938 134.167969 280.417969 134.789062 280.441406 135.417969 C 280.464844 136.046875 280.425781 136.671875 280.324219 137.292969 C 280.222656 137.914062 280.0625 138.519531 279.84375 139.109375 C 279.621094 139.699219 279.347656 140.261719 279.015625 140.796875 C 278.683594 141.332031 278.304688 141.828125 277.875 142.289062 C 277.445312 142.75 276.976562 143.164062 276.464844 143.53125 C 275.957031 143.898438 275.414062 144.214844 274.839844 144.476562 C 274.269531 144.738281 273.675781 144.941406 273.0625 145.085938 C 272.449219 145.230469 271.828125 145.3125 271.199219 145.335938 C 270.570312 145.355469 269.945312 145.316406 269.324219 145.21875 C 268.703125 145.117188 268.097656 144.957031 267.507812 144.738281 C 266.917969 144.515625 266.355469 144.242188 265.820312 143.910156 C 265.285156 143.578125 264.785156 143.199219 264.324219 142.769531 C 263.863281 142.34375 263.449219 141.871094 263.082031 141.363281 C 262.714844 140.851562 262.398438 140.308594 262.136719 139.738281 C 261.875 139.164062 261.671875 138.574219 261.527344 137.960938 C 261.382812 137.347656 261.300781 136.726562 261.277344 136.097656 C 261.253906 135.46875 261.292969 134.847656 261.394531 134.226562 C 261.496094 133.605469 261.65625 133 261.875 132.410156 C 262.097656 131.820312 262.371094 131.257812 262.703125 130.722656 C 263.035156 130.1875 263.414062 129.6875 263.84375 129.226562 C 264.273438 128.769531 264.742188 128.355469 265.253906 127.984375 C 265.761719 127.617188 266.304688 127.304688 266.878906 127.042969 C 267.449219 126.78125 268.042969 126.578125 268.65625 126.433594 C 269.269531 126.289062 269.890625 126.207031 270.519531 126.183594 C 271.148438 126.160156 271.773438 126.199219 272.394531 126.300781 C 273.015625 126.402344 273.621094 126.5625 274.210938 126.78125 C 274.800781 127 275.363281 127.277344 275.898438 127.609375 C 276.433594 127.9375 276.933594 128.316406 277.394531 128.746094 C 277.855469 129.175781 278.269531 129.644531 278.636719 130.15625 C 279.003906 130.667969 279.320312 131.207031 279.582031 131.78125 C 279.84375 132.351562 280.046875 132.945312 280.191406 133.558594 Z M 280.191406 133.558594 "/></g></svg>